<?xml version="1.0" encoding="UTF-8" standalone="no"?>
<!-- Created with Inkscape (http://www.inkscape.org/) -->

<svg
   xmlns:dc="http://purl.org/dc/elements/1.1/"
   xmlns:cc="http://creativecommons.org/ns#"
   xmlns:rdf="http://www.w3.org/1999/02/22-rdf-syntax-ns#"
   xmlns:svg="http://www.w3.org/2000/svg"
   xmlns="http://www.w3.org/2000/svg"
   xmlns:sodipodi="http://sodipodi.sourceforge.net/DTD/sodipodi-0.dtd"
   xmlns:inkscape="http://www.inkscape.org/namespaces/inkscape"
   width="105.79241mm"
   height="32.904427mm"
   viewBox="0 0 105.79241 32.904427"
   version="1.1"
   id="svg8"
   inkscape:version="0.92.5 (2060ec1f9f, 2020-04-08)"
   sodipodi:docname="app-logo.svg"
   inkscape:export-xdpi="96"
   inkscape:export-ydpi="96">
  <defs
     id="defs2" />
  <sodipodi:namedview
     id="base"
     pagecolor="#ffffff"
     bordercolor="#666666"
     borderopacity="1.0"
     inkscape:pageopacity="0"
     inkscape:pageshadow="2"
     inkscape:zoom="0.7"
     inkscape:cx="-466.10971"
     inkscape:cy="-3.3071581"
     inkscape:document-units="mm"
     inkscape:current-layer="layer1"
     showgrid="false"
     inkscape:window-width="1920"
     inkscape:window-height="1016"
     inkscape:window-x="0"
     inkscape:window-y="27"
     inkscape:window-maximized="1"
     fit-margin-top="0"
     fit-margin-left="0"
     fit-margin-right="0"
     fit-margin-bottom="0"
     showborder="true"
     inkscape:showpageshadow="false" />
  <metadata
     id="metadata5">
    <rdf:RDF>
      <cc:Work
         rdf:about="">
        <dc:format>image/svg+xml</dc:format>
        <dc:type
           rdf:resource="http://purl.org/dc/dcmitype/StillImage" />
        <dc:title></dc:title>
      </cc:Work>
    </rdf:RDF>
  </metadata>
  <g
     inkscape:label="Layer 1"
     inkscape:groupmode="layer"
     id="layer1"
     transform="translate(-49.335528,-115.09019)">
    <path
       inkscape:connector-curvature="0"
       id="path1138"
       style="font-style:normal;font-variant:normal;font-weight:500;font-stretch:normal;font-size:48px;line-height:0;font-family:Dosis;-inkscape-font-specification:'Dosis Medium';letter-spacing:0px;word-spacing:0px;fill:#931111;fill-opacity:1;stroke:none;stroke-width:0.26458332"
       d="m 87.528621,121.00987 q 0,-0.1905 0.203201,-0.3175 0.2159,-0.127 0.4445,-0.127 0.3175,0 0.3937,0.2413 l 2.2352,7.5438 2.2225,-7.5438 q 0.0889,-0.2413 0.381,-0.2413 0.2413,0 0.4445,0.1397 0.2159,0.1397 0.2159,0.3175 0,0.0127 -0.0127,0.0381 0,0.0254 0,0.0508 l -2.5781,8.4455 q -0.1397,0.3683 -0.6731,0.3683 -0.5334,0 -0.6477,-0.3683 l -2.603501,-8.4455 q -0.0254,-0.0762 -0.0254,-0.1016 z" />
    <path
       inkscape:connector-curvature="0"
       id="path1140"
       style="font-style:normal;font-variant:normal;font-weight:500;font-stretch:normal;font-size:48px;line-height:0;font-family:Dosis;-inkscape-font-specification:'Dosis Medium';letter-spacing:0px;word-spacing:0px;fill:#931111;fill-opacity:1;stroke:none;stroke-width:0.26458332"
       d="m 94.158618,127.48687 v -1.3335 q 0,-0.9779 0.7366,-1.6891 0.7493,-0.7112 1.7907,-0.7112 0.9906,0 1.7145,0.6731 0.7239,0.6604 0.7239,1.6637 0,0.3683 -0.0889,0.5969 -0.0889,0.2159 -0.2794,0.3175 -0.1778,0.0889 -0.3429,0.1143 -0.1524,0.0254 -0.4191,0.0254 h -2.7813 v 0.381 q 0,0.6985 0.4953,1.1176 0.508,0.4191 1.3081,0.4191 0.4191,0 0.7239,-0.127 0.3175,-0.127 0.508,-0.2413 0.1905,-0.127 0.3048,-0.127 0.1778,0 0.3048,0.1651 0.127,0.1524 0.127,0.3175 0,0.2921 -0.5842,0.5969 -0.5715,0.3048 -1.4224,0.3048 -1.2446,0 -2.032,-0.6731 -0.7874,-0.6858 -0.7874,-1.7907 z m 1.0541,-1.0541 h 2.3495 q 0.3302,0 0.4445,-0.0762 0.1143,-0.0889 0.1143,-0.3302 0,-0.5715 -0.4191,-1.0033 -0.4191,-0.4318 -1.0287,-0.4318 -0.5969,0 -1.0287,0.4064 -0.4318,0.3937 -0.4318,0.9779 z" />
    <path
       inkscape:connector-curvature="0"
       id="path1142"
       style="font-style:normal;font-variant:normal;font-weight:500;font-stretch:normal;font-size:48px;line-height:0;font-family:Dosis;-inkscape-font-specification:'Dosis Medium';letter-spacing:0px;word-spacing:0px;fill:#931111;fill-opacity:1;stroke:none;stroke-width:0.26458332"
       d="m 100.06213,127.48687 v -1.2954 q 0,-1.0033 0.6731,-1.7145 0.6731,-0.7239 1.6002,-0.7239 0.5715,0 1.0033,0.2794 0.4318,0.2794 0.6604,0.6858 v -4.1529 q 0,-0.1651 0.1524,-0.2667 0.1524,-0.1016 0.381,-0.1016 0.2286,0 0.3683,0.1016 0.1524,0.1016 0.1524,0.2667 v 8.9027 q 0,0.1524 -0.1524,0.2667 -0.1524,0.1143 -0.3683,0.1143 -0.1905,0 -0.3429,-0.1143 -0.1397,-0.1143 -0.1397,-0.2667 v -0.508 q -0.2159,0.4064 -0.6985,0.6985 -0.4826,0.2921 -1.0541,0.2921 -0.889,0 -1.5621,-0.7493 -0.6731,-0.7493 -0.6731,-1.7145 z m 1.0541,0 q 0,0.5842 0.4318,1.0541 0.4318,0.4572 1.0033,0.4572 0.5588,0 1.0033,-0.4191 0.4445,-0.4318 0.4445,-0.7493 v -1.6383 q 0,-0.6604 -0.4318,-1.0668 -0.4318,-0.4191 -1.0033,-0.4191 -0.5842,0 -1.016,0.4572 -0.4318,0.4572 -0.4318,1.0287 z" />
    <path
       inkscape:connector-curvature="0"
       id="path1144"
       style="font-style:normal;font-variant:normal;font-weight:500;font-stretch:normal;font-size:48px;line-height:0;font-family:Dosis;-inkscape-font-specification:'Dosis Medium';letter-spacing:0px;word-spacing:0px;fill:#931111;fill-opacity:1;stroke:none;stroke-width:0.26458332"
       d="m 106.17262,128.26157 q 0,-0.9906 0.762,-1.3716 0.762,-0.3937 2.2098,-0.3937 h 0.6096 v -0.2667 q 0,-0.635 -0.3556,-1.1049 -0.3429,-0.4699 -1.0414,-0.4699 -0.5334,0 -0.9398,0.1905 -0.4064,0.1778 -0.4445,0.1778 -0.1778,0 -0.2921,-0.1651 -0.1016,-0.1778 -0.1016,-0.3683 0,-0.2921 0.5715,-0.508 0.5842,-0.2286 1.2319,-0.2286 1.2446,0 1.8288,0.7112 0.5969,0.6985 0.5969,1.7526 v 3.2512 q 0,0.1651 -0.1524,0.2794 -0.1397,0.1016 -0.3683,0.1016 -0.2032,0 -0.3429,-0.1016 -0.1397,-0.1143 -0.1397,-0.2794 v -0.508 q -0.8636,0.9906 -1.9177,0.9906 -0.762,0 -1.2446,-0.4318 -0.4699,-0.4318 -0.4699,-1.2573 z m 1.0668,-0.1143 q 0,0.4699 0.2667,0.7112 0.2667,0.2413 0.7112,0.2413 0.5334,0 1.0287,-0.4191 0.508,-0.4318 0.508,-0.8763 v -0.6604 h -0.4445 q -0.3683,0 -0.635,0.0254 -0.2667,0.0127 -0.5588,0.0762 -0.2794,0.0508 -0.4699,0.1651 -0.1778,0.1016 -0.2921,0.2921 -0.1143,0.1778 -0.1143,0.4445 z" />
    <path
       inkscape:connector-curvature="0"
       id="path1146"
       style="font-style:normal;font-variant:normal;font-weight:500;font-stretch:normal;font-size:48px;line-height:0;font-family:Dosis;-inkscape-font-specification:'Dosis Medium';letter-spacing:0px;word-spacing:0px;fill:#931111;fill-opacity:1;stroke:none;stroke-width:0.26458332"
       d="m 111.14268,120.99717 q 0,-0.1778 0.2032,-0.3048 0.2159,-0.127 0.4445,-0.127 0.3175,0 0.3937,0.2413 l 2.1463,7.5438 1.2065,-4.6482 q 0.0889,-0.3302 0.5588,-0.3302 0.4445,0 0.5334,0.3302 l 1.2192,4.6482 2.1336,-7.5438 q 0.0762,-0.2413 0.4064,-0.2413 0.2286,0 0.4318,0.127 0.2032,0.127 0.2032,0.3048 0,0.0762 -0.0127,0.1143 l -2.5019,8.4455 q -0.1143,0.3683 -0.6604,0.3683 -0.5715,0 -0.6604,-0.3683 l -1.0922,-4.191 -1.1049,4.191 q -0.1016,0.3683 -0.6477,0.3683 -0.5461,0 -0.6604,-0.3683 l -2.5146,-8.4455 q -0.0254,-0.0762 -0.0254,-0.1143 z" />
    <path
       inkscape:connector-curvature="0"
       id="path1148"
       style="font-style:normal;font-variant:normal;font-weight:500;font-stretch:normal;font-size:48px;line-height:0;font-family:Dosis;-inkscape-font-specification:'Dosis Medium';letter-spacing:0px;word-spacing:0px;fill:#931111;fill-opacity:1;stroke:none;stroke-width:0.26458332"
       d="m 121.14612,127.48687 v -1.3335 q 0,-0.9779 0.7366,-1.6891 0.7493,-0.7112 1.7907,-0.7112 0.9906,0 1.7145,0.6731 0.7239,0.6604 0.7239,1.6637 0,0.3683 -0.0889,0.5969 -0.0889,0.2159 -0.2794,0.3175 -0.1778,0.0889 -0.3429,0.1143 -0.1524,0.0254 -0.4191,0.0254 h -2.7813 v 0.381 q 0,0.6985 0.4953,1.1176 0.508,0.4191 1.3081,0.4191 0.4191,0 0.7239,-0.127 0.3175,-0.127 0.508,-0.2413 0.1905,-0.127 0.3048,-0.127 0.1778,0 0.3048,0.1651 0.127,0.1524 0.127,0.3175 0,0.2921 -0.5842,0.5969 -0.5715,0.3048 -1.4224,0.3048 -1.2446,0 -2.032,-0.6731 -0.7874,-0.6858 -0.7874,-1.7907 z m 1.0541,-1.0541 h 2.3495 q 0.3302,0 0.4445,-0.0762 0.1143,-0.0889 0.1143,-0.3302 0,-0.5715 -0.4191,-1.0033 -0.4191,-0.4318 -1.0287,-0.4318 -0.5969,0 -1.0287,0.4064 -0.4318,0.3937 -0.4318,0.9779 z" />
    <path
       inkscape:connector-curvature="0"
       id="path1150"
       style="font-style:normal;font-variant:normal;font-weight:500;font-stretch:normal;font-size:48px;line-height:0;font-family:Dosis;-inkscape-font-specification:'Dosis Medium';letter-spacing:0px;word-spacing:0px;fill:#931111;fill-opacity:1;stroke:none;stroke-width:0.26458332"
       d="m 127.29093,129.46807 v -8.9027 q 0,-0.1651 0.1397,-0.2667 0.1524,-0.1016 0.381,-0.1016 0.2286,0 0.381,0.1016 0.1524,0.1016 0.1524,0.2667 v 4.1529 q 0.2286,-0.4064 0.6604,-0.6858 0.4318,-0.2794 1.0033,-0.2794 0.9271,0 1.6002,0.7239 0.6731,0.7112 0.6731,1.7145 v 1.2954 q 0,0.9652 -0.6731,1.7145 -0.6731,0.7493 -1.5621,0.7493 -0.5715,0 -1.0541,-0.2921 -0.4826,-0.2921 -0.6985,-0.6985 v 0.508 q 0,0.1524 -0.1524,0.2667 -0.1397,0.1143 -0.3302,0.1143 -0.2159,0 -0.3683,-0.1143 -0.1524,-0.1143 -0.1524,-0.2667 z m 1.0541,-1.6383 q 0,0.3175 0.4445,0.7493 0.4445,0.4191 1.0033,0.4191 0.5715,0 1.0033,-0.4572 0.4318,-0.4699 0.4318,-1.0541 v -1.2954 q 0,-0.5715 -0.4318,-1.0287 -0.4318,-0.4572 -1.016,-0.4572 -0.5715,0 -1.0033,0.4191 -0.4318,0.4064 -0.4318,1.0668 z" />
    <path
       inkscape:connector-curvature="0"
       id="path1160"
       style="font-style:normal;font-variant:normal;font-weight:300;font-stretch:normal;font-size:48px;line-height:0;font-family:Dosis;-inkscape-font-specification:'Dosis Light';letter-spacing:0px;word-spacing:0px;fill:#000000;fill-opacity:0.62871289;stroke:none;stroke-width:0.26458332"
       d="m 88.316022,142.79883 v -8.7376 q 0,-0.1143 0.0762,-0.1905 0.0762,-0.0762 0.2032,-0.0762 h 2.1717 q 1.1938,0 1.9304,0.5842 0.7493,0.5715 0.7493,1.8796 0,2.1336 -2.0701,2.4257 l 2.032,3.937 q 0.0381,0.0762 0.0381,0.1524 0,0.127 -0.1016,0.2286 -0.0889,0.0889 -0.2413,0.0889 -0.1524,0 -0.3937,-0.4445 l -1.9939,-3.8989 h -1.7653 v 4.0513 q 0,0.2794 -0.3175,0.2794 -0.3175,0 -0.3175,-0.2794 z m 0.635,-4.6355 h 1.8161 q 2.0447,0 2.0447,-1.8923 0,-1.8669 -2.0447,-1.8669 h -1.8161 z" />
    <path
       inkscape:connector-curvature="0"
       id="path1162"
       style="font-style:normal;font-variant:normal;font-weight:300;font-stretch:normal;font-size:48px;line-height:0;font-family:Dosis;-inkscape-font-specification:'Dosis Light';letter-spacing:0px;word-spacing:0px;fill:#000000;fill-opacity:0.62871289;stroke:none;stroke-width:0.26458332"
       d="m 94.52156,134.72163 q 0,-0.1778 0.1397,-0.3048 0.1397,-0.1397 0.3429,-0.1397 0.1905,0 0.3302,0.1397 0.1397,0.127 0.1397,0.3048 0,0.1905 -0.1397,0.3302 -0.1397,0.1397 -0.3302,0.1397 -0.2032,0 -0.3429,-0.1397 -0.1397,-0.1397 -0.1397,-0.3302 z m 0.1778,8.0772 v -5.461 q 0,-0.254 0.3048,-0.254 0.3175,0 0.3175,0.254 v 5.461 q 0,0.1016 -0.1016,0.1905 -0.0889,0.0889 -0.2159,0.0889 -0.127,0 -0.2159,-0.0762 -0.0889,-0.0889 -0.0889,-0.2032 z" />
    <path
       inkscape:connector-curvature="0"
       id="path1164"
       style="font-style:normal;font-variant:normal;font-weight:300;font-stretch:normal;font-size:48px;line-height:0;font-family:Dosis;-inkscape-font-specification:'Dosis Light';letter-spacing:0px;word-spacing:0px;fill:#000000;fill-opacity:0.62871289;stroke:none;stroke-width:0.26458332"
       d="m 96.523596,144.39903 q 0,-0.9906 1.1176,-1.397 -0.7366,-0.2413 -0.7366,-0.889 0,-0.5842 0.6223,-0.9017 -0.6731,-0.5969 -0.6731,-1.6002 v -0.5207 q 0,-0.9144 0.5842,-1.4986 0.5842,-0.5842 1.524,-0.5842 0.9271,0 1.498604,0.5715 0.1778,-0.3556 0.4318,-0.5715 0.2667,-0.2159 0.4953,-0.2159 0.1651,0 0.2413,0.0889 0.0889,0.0889 0.0889,0.2032 0,0.2286 -0.2286,0.254 -0.4445,0.0254 -0.7366,0.5715 0.3302,0.4445 0.3302,1.1811 v 0.5207 q 0,0.9144 -0.5969,1.5113 -0.596904,0.5969 -1.536704,0.5969 -0.5715,0 -1.0033,-0.2413 -0.4572,0.2286 -0.4572,0.5588 0,0.3302 0.4064,0.4826 0.4191,0.1397 1.0033,0.1905 0.5842,0.0381 1.168404,0.1397 0.5842,0.1016 0.9906,0.4572 0.4191,0.3556 0.4191,0.9906 0,0.8382 -0.6604,1.2954 -0.6604,0.4699 -1.778004,0.4699 -1.1176,0 -1.8161,-0.4572 -0.6985,-0.4572 -0.6985,-1.2065 z m 0.6096,-0.0635 q 0,0.5461 0.508,0.8763 0.508,0.3429 1.397,0.3429 0.8636,0 1.333504,-0.3302 0.4826,-0.3302 0.4826,-0.9017 0,-0.2794 -0.1397,-0.4826 -0.127,-0.1905 -0.3175,-0.3048 -0.1905,-0.1143 -0.495304,-0.1905 -0.2921,-0.0762 -0.5207,-0.1016 -0.2159,-0.0127 -0.5461,-0.0381 l -0.4572,-0.0508 q -1.2446,0.3683 -1.2446,1.1811 z m 0.3302,-4.7371 q 0,0.6985 0.4064,1.1557 0.4064,0.4445 1.1049,0.4445 0.6858,0 1.092204,-0.4445 0.4064,-0.4445 0.4064,-1.143 v -0.5207 q 0,-0.6858 -0.4064,-1.1176 -0.406404,-0.4445 -1.104904,-0.4445 -0.6985,0 -1.1049,0.4445 -0.3937,0.4318 -0.3937,1.1176 z" />
    <path
       inkscape:connector-curvature="0"
       id="path1166"
       style="font-style:normal;font-variant:normal;font-weight:300;font-stretch:normal;font-size:48px;line-height:0;font-family:Dosis;-inkscape-font-specification:'Dosis Light';letter-spacing:0px;word-spacing:0px;fill:#000000;fill-opacity:0.62871289;stroke:none;stroke-width:0.26458332"
       d="m 102.07687,137.36323 q 0,-0.127 0.1016,-0.2032 0.1143,-0.0889 0.254,-0.0889 0.2032,0 0.254,0.1524 l 1.7399,4.8006 1.7399,-4.7244 q 0.0889,-0.2286 0.254,-0.2286 0.127,0 0.2413,0.0889 0.127,0.0762 0.127,0.1905 l -0.0508,0.2032 -2.0066,5.4356 q -0.0889,0.1778 -0.3048,0.1778 -0.2159,0 -0.2921,-0.1778 l -2.0066,-5.4356 q -0.0508,-0.1524 -0.0508,-0.1905 z" />
    <path
       inkscape:connector-curvature="0"
       id="path1168"
       style="font-style:normal;font-variant:normal;font-weight:300;font-stretch:normal;font-size:48px;line-height:0;font-family:Dosis;-inkscape-font-specification:'Dosis Light';letter-spacing:0px;word-spacing:0px;fill:#000000;fill-opacity:0.62871289;stroke:none;stroke-width:0.26458332"
       d="m 107.61724,140.80493 v -1.5113 q 0,-0.9398 0.6858,-1.6129 0.6858,-0.6731 1.651,-0.6731 0.9398,0 1.6256,0.6604 0.6858,0.6604 0.6858,1.6383 0,0.3429 -0.0889,0.5588 -0.0762,0.2032 -0.254,0.2921 -0.1778,0.0889 -0.3302,0.1143 -0.1397,0.0127 -0.4064,0.0127 h -2.9464 v 0.5334 q 0,0.8001 0.5715,1.2827 0.5715,0.4826 1.4732,0.4826 0.4572,0 0.7747,-0.127 0.3175,-0.127 0.4826,-0.254 0.1651,-0.127 0.254,-0.127 0.1143,0 0.2032,0.1016 0.0889,0.1016 0.0889,0.2032 0,0.2413 -0.5334,0.508 -0.5207,0.2667 -1.2954,0.2667 -1.1684,0 -1.905,-0.6477 -0.7366,-0.6477 -0.7366,-1.7018 z m 0.6223,-1.0414 h 2.7051 q 0.4318,0 0.5715,-0.0889 0.1397,-0.0889 0.1397,-0.3683 0,-0.6731 -0.4826,-1.2065 -0.4826,-0.5334 -1.2192,-0.5334 -0.7112,0 -1.2192,0.4953 -0.4953,0.4953 -0.4953,1.1811 z" />
    <path
       inkscape:connector-curvature="0"
       id="path1170"
       style="font-style:normal;font-variant:normal;font-weight:300;font-stretch:normal;font-size:48px;line-height:0;font-family:Dosis;-inkscape-font-specification:'Dosis Light';letter-spacing:0px;word-spacing:0px;fill:#000000;fill-opacity:0.62871289;stroke:none;stroke-width:0.26458332"
       d="m 113.34713,140.80493 v -1.4732 q 0,-0.9652 0.6731,-1.6383 0.6731,-0.6858 1.6129,-0.6858 0.5842,0 1.016,0.2794 0.4445,0.2667 0.6731,0.6858 v -4.3561 q 0,-0.1143 0.0889,-0.1905 0.0889,-0.0762 0.2286,-0.0762 0.127,0 0.2159,0.0762 0.0889,0.0762 0.0889,0.1905 v 9.1821 q 0,0.1143 -0.0889,0.2032 -0.0889,0.0762 -0.2159,0.0762 -0.127,0 -0.2159,-0.0889 -0.0889,-0.0889 -0.0889,-0.1905 v -0.6096 q -0.2159,0.4064 -0.6985,0.6858 -0.4699,0.2794 -1.0287,0.2794 -0.9017,0 -1.5875,-0.7112 -0.6731,-0.7112 -0.6731,-1.6383 z m 0.6223,0 q 0,0.6858 0.508,1.2319 0.508,0.5334 1.1811,0.5334 0.6477,0 1.1557,-0.4826 0.508,-0.4826 0.508,-0.8509 v -1.905 q 0,-0.7747 -0.508,-1.2573 -0.4953,-0.4826 -1.143,-0.4826 -0.6858,0 -1.1938,0.5334 -0.508,0.5334 -0.508,1.2065 z" />
    <path
       inkscape:connector-curvature="0"
       id="path1172"
       style="font-style:normal;font-variant:normal;font-weight:300;font-stretch:normal;font-size:48px;line-height:0;font-family:Dosis;-inkscape-font-specification:'Dosis Light';letter-spacing:0px;word-spacing:0px;fill:#000000;fill-opacity:0.62871289;stroke:none;stroke-width:0.26458332"
       d="m 119.20897,141.47803 q 0,-0.9525 0.7493,-1.3208 0.762,-0.381 2.2098,-0.381 h 0.6858 v -0.3302 q 0,-0.762 -0.4064,-1.3081 -0.3937,-0.5588 -1.1938,-0.5588 -0.4826,0 -0.9017,0.1778 -0.4191,0.1778 -0.4318,0.1778 -0.127,0 -0.2032,-0.1143 -0.0762,-0.1143 -0.0762,-0.2286 0,-0.2159 0.5207,-0.3937 0.5334,-0.1905 1.1176,-0.1905 1.1303,0 1.6637,0.6985 0.5334,0.6858 0.5334,1.7399 v 3.3528 q 0,0.1143 -0.0889,0.2032 -0.0889,0.0762 -0.2159,0.0762 -0.127,0 -0.2159,-0.0762 -0.0889,-0.0889 -0.0889,-0.2032 v -0.6096 q -0.8382,0.9652 -1.905,0.9652 -0.7747,0 -1.27,-0.4191 -0.4826,-0.4318 -0.4826,-1.2573 z m 0.6223,-0.0254 q 0,0.5715 0.3302,0.8636 0.3429,0.2794 0.889,0.2794 0.6477,0 1.2192,-0.4572 0.5842,-0.4699 0.5842,-0.9144 v -0.9398 h -0.6223 q -0.5461,0 -0.9144,0.0381 -0.3683,0.0381 -0.7366,0.1524 -0.3683,0.1016 -0.5588,0.3556 -0.1905,0.2413 -0.1905,0.6223 z" />
    <path
       inkscape:connector-curvature="0"
       id="path1174"
       style="font-style:normal;font-variant:normal;font-weight:300;font-stretch:normal;font-size:48px;line-height:0;font-family:Dosis;-inkscape-font-specification:'Dosis Light';letter-spacing:0px;word-spacing:0px;fill:#000000;fill-opacity:0.62871289;stroke:none;stroke-width:0.26458332"
       d="m 127.39868,140.80493 v -1.4732 q 0,-0.9398 0.6858,-1.6256 0.6858,-0.6985 1.6383,-0.6985 0.9398,0 1.6383,0.6858 0.6985,0.6858 0.6985,1.6383 v 1.4732 q 0,0.9271 -0.7112,1.6383 -0.6985,0.7112 -1.6256,0.7112 -0.9271,0 -1.6256,-0.6985 -0.6985,-0.7112 -0.6985,-1.651 z m 0.6223,0 q 0,0.6858 0.4953,1.2319 0.508,0.5334 1.2065,0.5334 0.6985,0 1.2065,-0.5334 0.508,-0.5461 0.508,-1.2319 v -1.4732 q 0,-0.6731 -0.508,-1.2065 -0.508,-0.5334 -1.2065,-0.5334 -0.6985,0 -1.2065,0.5334 -0.4953,0.5334 -0.4953,1.2065 z" />
    <path
       inkscape:connector-curvature="0"
       id="path1176"
       style="font-style:normal;font-variant:normal;font-weight:300;font-stretch:normal;font-size:48px;line-height:0;font-family:Dosis;-inkscape-font-specification:'Dosis Light';letter-spacing:0px;word-spacing:0px;fill:#000000;fill-opacity:0.62871289;stroke:none;stroke-width:0.26458332"
       d="m 133.49389,142.79883 v -5.461 q 0,-0.254 0.3048,-0.254 0.127,0 0.2159,0.0762 0.0889,0.0635 0.0889,0.1778 v 0.635 q 0.2159,-0.4064 0.6604,-0.6858 0.4445,-0.2794 1.0414,-0.2794 0.9271,0 1.6002,0.6858 0.6731,0.6858 0.6731,1.6383 v 3.4671 q 0,0.2794 -0.3175,0.2794 -0.3048,0 -0.3048,-0.2794 v -3.4671 q 0,-0.6731 -0.508,-1.2065 -0.508,-0.5334 -1.1938,-0.5334 -0.6477,0 -1.143,0.4826 -0.4953,0.4699 -0.4953,1.2573 v 3.4671 q 0,0.1016 -0.1016,0.1905 -0.0889,0.0889 -0.2159,0.0889 -0.127,0 -0.2159,-0.0762 -0.0889,-0.0889 -0.0889,-0.2032 z" />
    <path
       inkscape:connector-curvature="0"
       id="path1178"
       style="font-style:normal;font-variant:normal;font-weight:300;font-stretch:normal;font-size:48px;line-height:0;font-family:Dosis;-inkscape-font-specification:'Dosis Light';letter-spacing:0px;word-spacing:0px;fill:#000000;fill-opacity:0.62871289;stroke:none;stroke-width:0.26458332"
       d="m 139.79666,142.79883 v -9.1821 q 0,-0.1143 0.0889,-0.1905 0.0889,-0.0762 0.2159,-0.0762 0.1397,0 0.2286,0.0762 0.0889,0.0762 0.0889,0.1905 v 9.1821 q 0,0.1016 -0.1016,0.1905 -0.0889,0.0889 -0.2159,0.0889 -0.127,0 -0.2159,-0.0762 -0.0889,-0.0889 -0.0889,-0.2032 z" />
    <path
       inkscape:connector-curvature="0"
       id="path1180"
       style="font-style:normal;font-variant:normal;font-weight:300;font-stretch:normal;font-size:48px;line-height:0;font-family:Dosis;-inkscape-font-specification:'Dosis Light';letter-spacing:0px;word-spacing:0px;fill:#000000;fill-opacity:0.62871289;stroke:none;stroke-width:0.26458332"
       d="m 142.02254,134.72163 q 0,-0.1778 0.1397,-0.3048 0.1397,-0.1397 0.3429,-0.1397 0.1905,0 0.3302,0.1397 0.1397,0.127 0.1397,0.3048 0,0.1905 -0.1397,0.3302 -0.1397,0.1397 -0.3302,0.1397 -0.2032,0 -0.3429,-0.1397 -0.1397,-0.1397 -0.1397,-0.3302 z m 0.1778,8.0772 v -5.461 q 0,-0.254 0.3048,-0.254 0.3175,0 0.3175,0.254 v 5.461 q 0,0.1016 -0.1016,0.1905 -0.0889,0.0889 -0.2159,0.0889 -0.127,0 -0.2159,-0.0762 -0.0889,-0.0889 -0.0889,-0.2032 z" />
    <path
       inkscape:connector-curvature="0"
       id="path1182"
       style="font-style:normal;font-variant:normal;font-weight:300;font-stretch:normal;font-size:48px;line-height:0;font-family:Dosis;-inkscape-font-specification:'Dosis Light';letter-spacing:0px;word-spacing:0px;fill:#000000;fill-opacity:0.62871289;stroke:none;stroke-width:0.26458332"
       d="m 144.50717,142.79883 v -5.461 q 0,-0.254 0.3048,-0.254 0.127,0 0.2159,0.0762 0.0889,0.0635 0.0889,0.1778 v 0.635 q 0.2159,-0.4064 0.6604,-0.6858 0.4445,-0.2794 1.0414,-0.2794 0.9271,0 1.6002,0.6858 0.6731,0.6858 0.6731,1.6383 v 3.4671 q 0,0.2794 -0.3175,0.2794 -0.3048,0 -0.3048,-0.2794 v -3.4671 q 0,-0.6731 -0.508,-1.2065 -0.508,-0.5334 -1.1938,-0.5334 -0.6477,0 -1.143,0.4826 -0.4953,0.4699 -0.4953,1.2573 v 3.4671 q 0,0.1016 -0.1016,0.1905 -0.0889,0.0889 -0.2159,0.0889 -0.127,0 -0.2159,-0.0762 -0.0889,-0.0889 -0.0889,-0.2032 z" />
    <path
       inkscape:connector-curvature="0"
       id="path1184"
       style="font-style:normal;font-variant:normal;font-weight:300;font-stretch:normal;font-size:48px;line-height:0;font-family:Dosis;-inkscape-font-specification:'Dosis Light';letter-spacing:0px;word-spacing:0px;fill:#000000;fill-opacity:0.62871289;stroke:none;stroke-width:0.26458332"
       d="m 150.47974,140.80493 v -1.5113 q 0,-0.9398 0.6858,-1.6129 0.6858,-0.6731 1.651,-0.6731 0.9398,0 1.6256,0.6604 0.6858,0.6604 0.6858,1.6383 0,0.3429 -0.0889,0.5588 -0.0762,0.2032 -0.254,0.2921 -0.1778,0.0889 -0.3302,0.1143 -0.1397,0.0127 -0.4064,0.0127 h -2.9464 v 0.5334 q 0,0.8001 0.5715,1.2827 0.5715,0.4826 1.4732,0.4826 0.4572,0 0.7747,-0.127 0.3175,-0.127 0.4826,-0.254 0.1651,-0.127 0.254,-0.127 0.1143,0 0.2032,0.1016 0.0889,0.1016 0.0889,0.2032 0,0.2413 -0.5334,0.508 -0.5207,0.2667 -1.2954,0.2667 -1.1684,0 -1.905,-0.6477 -0.7366,-0.6477 -0.7366,-1.7018 z m 0.6223,-1.0414 h 2.7051 q 0.4318,0 0.5715,-0.0889 0.1397,-0.0889 0.1397,-0.3683 0,-0.6731 -0.4826,-1.2065 -0.4826,-0.5334 -1.2192,-0.5334 -0.7112,0 -1.2192,0.4953 -0.4953,0.4953 -0.4953,1.1811 z" />
    <g
       id="g969"
       transform="matrix(0.23873446,0,0,0.23873446,56.216115,84.342785)">
      <path
         style="fill:#931111;fill-opacity:1;stroke:none;stroke-width:0.35277778"
         d="m 37.24607,262.39695 c -4.27379,-6.56703 -4.684233,-7.44066 -4.684233,-9.97056 0,-4.6205 3.175794,-7.64908 8.000521,-7.62965 2.561445,0.0103 5.104786,1.3055 6.490691,3.30536 0.741987,1.07069 1.003738,1.92318 1.111857,3.62118 0.221696,3.48163 -0.239818,4.49304 -5.248942,11.50301 -1.055638,1.4773 -2.078091,2.9478 -2.272118,3.26777 -0.288657,0.47603 -0.906226,-0.26865 -3.397776,-4.09711 z m -23.378274,-1.2587 c -0.642962,-2.17758 -2.050471,-10.51968 -2.096325,-12.42463 -0.110893,-4.60688 2.749095,-7.75339 7.302066,-8.03362 1.857484,-0.11432 2.44421,0.012 4.101783,0.88291 2.859359,1.50238 4.019042,3.32833 4.169008,6.56419 0.108913,2.35005 0.03178,2.67725 -1.054774,4.47568 -1.207633,1.9988 -1.83007,2.48546 -9.176008,7.17437 -2.567672,1.63895 -3.098042,1.86136 -3.24575,1.3611 z m 47.942717,-2.77537 c -2.716389,-1.8345 -5.389989,-3.76194 -5.941335,-4.2832 -3.393571,-3.20835 -3.281176,-8.51855 0.245851,-11.61531 1.653198,-1.45153 3.384825,-1.96181 6.075899,-1.79045 2.807003,0.17873 4.829771,1.465 6.058433,3.85252 1.350144,2.62358 1.374129,4.75215 0.114857,10.19301 -0.606249,2.61937 -1.217591,5.26119 -1.35854,5.87069 l -0.256276,1.1082 z M -8.2158782,247.05452 c 0,-0.81705 2.170569,-11.00394 2.642911,-12.40369 1.451738,-4.30209 5.329362,-6.39072 9.57382,-5.15683 5.837632,1.69705 7.7818532,9.23356 3.425993,13.28039 -1.754529,1.63005 -3.814991,2.3833 -9.000466,3.29032 -2.780117,0.48629 -5.411946,0.98418 -5.848508,1.10643 -0.436563,0.12225 -0.79375,0.0698 -0.79375,-0.11662 z m 91.1039832,-1.67379 c -7.117427,-1.43684 -9.332081,-2.43553 -10.821611,-4.87999 -0.842998,-1.38344 -1.034881,-2.09692 -1.043633,-3.88056 -0.03598,-7.33148 8.64217,-10.98787 13.519754,-5.69631 1.96157,2.12805 2.26905,2.95531 3.3397,8.98526 0.49892,2.80991 1.00695,5.46612 1.12895,5.90268 0.122,0.43656 0.0842,0.77859 -0.0839,0.76006 -0.16815,-0.0185 -2.88582,-0.55454 -6.03925,-1.19114 z m -96.748428,-18.34846 c -1.067153,-0.27719 -3.627713,-0.84693 -5.690134,-1.26607 l -3.749855,-0.76209 3.169796,-4.8845 c 4.675804,-7.20519 7.249002,-9.23319 10.9620505,-8.63945 5.7133583,0.9136 8.6435763,6.75537 5.9626363,11.88727 -0.813844,1.55788 -1.327287,2.06361 -2.924244,2.88033 -2.3538789,1.20381 -5.0590808,1.47835 -7.7302498,0.78451 z m 70.824357,-0.847 c -7.167273,-2.36312 -11.045412,-8.81672 -8.091763,-13.46551 1.34432,-2.11584 2.956832,-3.46592 6.938384,-5.80919 1.844714,-1.08567 3.354025,-2.1274 3.354025,-2.31495 0,-0.18755 -0.544837,-1.42291 -1.210748,-2.74524 l -1.210751,-2.40422 -2.468689,0.62693 c -2.939394,0.74647 -7.253821,1.37691 -9.42284,1.37691 h -1.561973 v 11.80019 11.80019 l -2.469444,-1.42374 -2.469445,-1.42374 v -8.08339 c 0,-5.18978 -0.127134,-8.0834 -0.355152,-8.0834 -0.195333,0 -4.4713,2.69875 -9.502147,5.99723 -5.030848,3.29847 -9.276342,5.99693 -9.434432,5.99658 -0.15809,-3.5e-4 -1.228263,-0.84262 -2.378167,-1.87171 l -2.090727,-1.87107 1.914338,-1.18067 c 1.05289,-0.64937 6.200592,-3.79489 11.439342,-6.99005 5.23875,-3.19515 9.604376,-5.89143 9.701389,-5.99174 0.09701,-0.10031 -0.02515,-0.25429 -0.271518,-0.34218 -0.246349,-0.0879 -2.151349,-1.19981 -4.233334,-2.47092 -2.081985,-1.27112 -4.976051,-2.87644 -6.431259,-3.56739 -2.371909,-1.12622 -2.956282,-1.25797 -5.644445,-1.27263 -3.245901,-0.0177 -4.267514,0.33967 -6.450725,2.25655 l -1.168584,1.02603 -1.482012,-2.46351 c -0.815107,-1.35493 -1.481706,-2.57367 -1.481332,-2.70832 0.0014,-0.52945 3.443253,-2.52484 5.028008,-2.91502 4.295073,-1.05748 7.313987,0.0616 16.667146,6.17831 2.910416,1.90333 5.490104,3.53682 5.732639,3.62997 0.345708,0.13277 0.440972,-1.78221 0.440972,-8.86421 v -9.03358 l -16.139584,-0.002 -16.1395842,-0.002 -1.343593,-2.46708 -1.343594,-2.46687 H 38.464794 73.545155 l 1.419197,2.38125 1.419197,2.38125 -16.546933,0.0917 -16.546937,0.0916 v 9.89594 9.89594 l 1.675695,-0.22187 c 3.652453,-0.48358 9.613653,-2.73374 9.613018,-3.62859 -9.9e-5,-0.13735 -0.317599,-1.08486 -0.705556,-2.10559 -0.945479,-2.48758 -0.904469,-3.46547 0.17501,-4.17277 2.333495,-1.52897 9.702945,2.36906 9.702945,5.13232 0,1.02811 -1.381569,2.51679 -3.034725,3.27002 -0.742255,0.3382 -0.700264,0.46459 1.723835,5.18861 1.366544,2.66307 2.373675,5.02148 2.238071,5.24089 -0.135604,0.21941 -2.174822,1.47657 -4.5316,2.7937 -4.712864,2.63386 -7.803325,5.28913 -8.186494,7.0337 -0.311376,1.41767 0.621358,3.74498 1.948437,4.86164 1.197416,1.00756 4.440616,1.76762 6.057181,1.41953 1.638907,-0.3529 3.089018,-1.13911 4.405588,-2.38859 l 1.149459,-1.09088 1.760958,1.73448 c 0.968526,0.95396 1.760957,1.86829 1.760957,2.03184 0,0.16355 -0.912813,0.71667 -2.028472,1.22915 -2.718376,1.24871 -7.087472,1.45787 -10.049952,0.48111 z m 30.221521,-0.003 c -3.69651,-1.67875 -5.38715,-6.4355 -3.64956,-10.2682 1.44027,-3.17691 3.80577,-4.73062 7.2023,-4.73062 3.58559,0 6.16633,1.93223 8.9744,6.71923 0.667305,1.13759 1.905375,3.07923 2.751255,4.31476 0.84589,1.23553 1.49053,2.2936 1.43255,2.35128 -0.058,0.0577 -2.60149,0.59459 -5.652225,1.19316 -6.38689,1.25314 -9.00629,1.35275 -11.05872,0.42056 z M -17.211712,205.68372 c -1.357874,-0.42424 -9.762922,-5.81339 -11.598682,-7.43684 -0.386522,-0.34182 9.82118,-7.14636 11.602278,-7.73417 2.135032,-0.70463 5.218895,-0.30265 6.965593,0.90795 1.8342158,1.27126 3.4377558,4.21109 3.4377558,6.30257 0,3.10256 -1.49825,5.87323 -3.9084888,7.22786 -1.59828,0.89828 -4.809497,1.26031 -6.498456,0.73263 z M 92.057285,205.5652 c -3.11532,-1.12983 -5.02838,-3.9867 -5.01541,-7.48977 0.0171,-4.61702 3.18881,-7.91432 7.61291,-7.91432 2.41695,0 3.98151,0.58294 6.703465,2.49767 1.33805,0.94123 3.664,2.54889 5.16879,3.5726 3.20608,2.18108 3.59376,1.49154 -3.30852,5.88466 -6.161475,3.92162 -8.157625,4.53848 -11.161235,3.44916 z M -13.691763,184.20937 c -1.987614,-0.90291 -3.361824,-2.39281 -5.668802,-6.14603 -1.098061,-1.78643 -2.530148,-3.99962 -3.182417,-4.91818 -1.171227,-1.64941 -1.17615,-1.67229 -0.396782,-1.84409 10.925468,-2.40845 13.9904695,-2.64072 16.4721088,-1.24829 2.430923,1.36397 3.669466,3.39737 3.833086,6.29303 0.212004,3.75196 -1.530286,6.68771 -4.776229,8.04793 -1.5941566,0.66803 -4.5986758,0.57984 -6.2809648,-0.18437 z m 101.787848,0.196 c -1.97245,-0.62814 -4.10472,-3.0294 -4.79328,-5.39795 -0.49487,-1.70228 -0.52439,-2.32713 -0.18035,-3.81756 0.48827,-2.11532 1.49013,-3.67981 3.03378,-4.73754 2.603,-1.7836 5.57814,-1.88422 11.814,-0.39954 2.425345,0.57744 4.840625,1.0518 5.367295,1.05412 0.94158,0.004 0.91066,0.0764 -1.85093,4.32574 -3.489325,5.36916 -5.688555,7.92439 -7.546695,8.76832 -1.59049,0.72237 -3.95736,0.80516 -5.84382,0.20441 z M -1.8175212,167.10033 c -1.74803,-0.63258 -3.755024,-2.46241 -4.585091,-4.18035 -0.401347,-0.83064 -1.119165,-3.73276 -1.595151,-6.44915 -0.4759865,-2.71638 -0.9751188,-5.37545 -1.1091832,-5.90902 -0.14651,-0.58311 -0.1003405,-0.97014 0.1157295,-0.97014 0.1977154,0 2.8140997,0.45988 5.8141867,1.02197 5.594642,1.04818 8.247559,1.95235 9.731767,3.31679 2.084324,1.91612 2.78372,6.07798 1.497334,8.91009 -1.645405,3.62254 -6.199284,5.58804 -9.869592,4.25981 z M 74.68662,165.73125 c -4.303599,-2.58423 -5.201581,-8.47612 -1.833086,-12.02734 1.674908,-1.76576 3.982219,-2.65271 9.323261,-3.58393 2.76854,-0.4827 5.4143,-0.98242 5.87945,-1.11049 0.75452,-0.20774 0.82367,-0.14134 0.64114,0.61563 -0.11253,0.46667 -0.54379,2.73497 -0.95835,5.04067 -1.74108,9.6834 -3.58775,12.18454 -9.010795,12.20424 -1.786773,0.006 -2.441649,-0.17803 -4.04162,-1.13878 z M 15.422752,154.69254 c -2.738691,-1.22854 -4.258246,-3.66913 -4.493768,-7.21754 -0.115732,-1.74362 0.108254,-3.37618 0.934801,-6.81345 0.597853,-2.48621 1.087004,-4.88069 1.087004,-5.32106 0,-0.44037 0.09892,-0.89959 0.219809,-1.02048 0.329187,-0.32919 10.522486,6.64956 11.628776,7.96154 1.510281,1.79107 1.999086,3.31736 1.843741,5.75701 -0.166529,2.61531 -1.312535,4.58241 -3.521157,6.044 -1.193309,0.7897 -1.927606,0.98707 -3.965737,1.06594 -1.69405,0.0656 -2.898927,-0.0816 -3.733469,-0.45596 z m 43.212761,0.0536 c -3.5693,-1.55927 -5.631431,-5.42847 -4.776618,-8.96243 0.569454,-2.35424 2.425224,-4.70939 4.962045,-6.29734 1.194975,-0.748 3.568161,-2.25766 5.273753,-3.35479 l 3.101072,-1.99479 1.141381,5.75469 c 1.856645,9.36098 1.259656,12.36239 -2.868045,14.41931 -2.091859,1.04242 -5.017326,1.22879 -6.833588,0.43535 z m -20.722492,-4.2243 c -2.850025,-1.06266 -4.532006,-2.85918 -5.212782,-5.56778 -0.656855,-2.61341 0.03263,-5.10108 2.316684,-8.35883 1.042011,-1.48621 2.654967,-3.84788 3.584353,-5.24815 0.929386,-1.40028 1.769167,-2.54947 1.866181,-2.55375 0.256861,-0.0113 6.12425,9.05212 7.06961,10.92054 1.442639,2.85124 0.957542,6.38925 -1.201847,8.76558 -1.844795,2.03013 -5.8501,3.00142 -8.422199,2.04239 z"
         id="path971"
         inkscape:connector-curvature="0" />
    </g>
  </g>
</svg>
