<?xml version="1.0" encoding="UTF-8" standalone="no"?>
<!-- Created with Inkscape (http://www.inkscape.org/) -->

<svg
   xmlns:dc="http://purl.org/dc/elements/1.1/"
   xmlns:cc="http://creativecommons.org/ns#"
   xmlns:rdf="http://www.w3.org/1999/02/22-rdf-syntax-ns#"
   xmlns:svg="http://www.w3.org/2000/svg"
   xmlns="http://www.w3.org/2000/svg"
   xmlns:sodipodi="http://sodipodi.sourceforge.net/DTD/sodipodi-0.dtd"
   xmlns:inkscape="http://www.inkscape.org/namespaces/inkscape"
   width="105.79241mm"
   height="32.904427mm"
   viewBox="0 0 105.79241 32.904427"
   version="1.1"
   id="svg8"
   inkscape:version="0.92.3 (2405546, 2018-03-11)"
   sodipodi:docname="app-logo.svg">
  <defs
     id="defs2" />
  <sodipodi:namedview
     id="base"
     pagecolor="#ffffff"
     bordercolor="#666666"
     borderopacity="1.0"
     inkscape:pageopacity="0"
     inkscape:pageshadow="2"
     inkscape:zoom="0.7"
     inkscape:cx="67.461722"
     inkscape:cy="-3.3071581"
     inkscape:document-units="mm"
     inkscape:current-layer="flowRoot10"
     showgrid="false"
     inkscape:window-width="1600"
     inkscape:window-height="821"
     inkscape:window-x="0"
     inkscape:window-y="1122"
     inkscape:window-maximized="1"
     fit-margin-top="0"
     fit-margin-left="0"
     fit-margin-right="0"
     fit-margin-bottom="0"
     showborder="true"
     inkscape:showpageshadow="false" />
  <metadata
     id="metadata5">
    <rdf:RDF>
      <cc:Work
         rdf:about="">
        <dc:format>image/svg+xml</dc:format>
        <dc:type
           rdf:resource="http://purl.org/dc/dcmitype/StillImage" />
        <dc:title></dc:title>
      </cc:Work>
    </rdf:RDF>
  </metadata>
  <g
     inkscape:label="Layer 1"
     inkscape:groupmode="layer"
     id="layer1"
     transform="translate(-49.335528,-115.09019)">
    <g
       aria-label="VedaWeb beta
Rigveda online"
       transform="matrix(0.26458333,0,0,0.26458333,61.232143,40.821429)"
       style="font-style:normal;font-weight:normal;font-size:40px;line-height:1.25;font-family:sans-serif;letter-spacing:0px;word-spacing:0px;fill:#000000;fill-opacity:1;stroke:none"
       id="flowRoot10">
      <path
         d="m 99.388266,303.07442 q 0,-0.72 0.768004,-1.2 0.816,-0.48 1.68,-0.48 1.2,0 1.488,0.912 l 8.448,28.512 8.4,-28.512 q 0.336,-0.912 1.44,-0.912 0.912,0 1.68,0.528 0.816,0.528 0.816,1.2 0,0.048 -0.048,0.144 0,0.096 0,0.192 l -9.744,31.92 q -0.528,1.392 -2.544,1.392 -2.016,0 -2.448,-1.392 l -9.840004,-31.92 q -0.096,-0.288 -0.096,-0.384 z"
         style="font-style:normal;font-variant:normal;font-weight:500;font-stretch:normal;font-size:48px;line-height:0;font-family:Dosis;-inkscape-font-specification:'Dosis Medium';fill:#931111;fill-opacity:1"
         id="path1040" />
      <path
         d="m 124.44652,327.55442 v -5.04 q 0,-3.696 2.784,-6.384 2.832,-2.688 6.768,-2.688 3.744,0 6.48,2.544 2.736,2.496 2.736,6.288 0,1.392 -0.336,2.256 -0.336,0.816 -1.056,1.2 -0.672,0.336 -1.296,0.432 -0.576,0.096 -1.584,0.096 h -10.512 v 1.44 q 0,2.64 1.872,4.224 1.92,1.584 4.944,1.584 1.584,0 2.736,-0.48 1.2,-0.48 1.92,-0.912 0.72,-0.48 1.152,-0.48 0.672,0 1.152,0.624 0.48,0.576 0.48,1.2 0,1.104 -2.208,2.256 -2.16,1.152 -5.376,1.152 -4.704,0 -7.68,-2.544 -2.976,-2.592 -2.976,-6.768 z m 3.984,-3.984 h 8.88 q 1.248,0 1.68,-0.288 0.432,-0.336 0.432,-1.248 0,-2.16 -1.584,-3.792 -1.584,-1.632 -3.888,-1.632 -2.256,0 -3.888,1.536 -1.632,1.488 -1.632,3.696 z"
         style="font-style:normal;font-variant:normal;font-weight:500;font-stretch:normal;font-size:48px;line-height:0;font-family:Dosis;-inkscape-font-specification:'Dosis Medium';fill:#931111;fill-opacity:1"
         id="path1042" />
      <path
         d="m 146.75902,327.55442 v -4.896 q 0,-3.792 2.544,-6.48 2.544,-2.736 6.048,-2.736 2.16,0 3.792,1.056 1.632,1.056 2.496,2.592 v -15.696 q 0,-0.624 0.576,-1.008 0.576,-0.384 1.44,-0.384 0.864,0 1.392,0.384 0.576,0.384 0.576,1.008 v 33.648 q 0,0.576 -0.576,1.008 -0.576,0.432 -1.392,0.432 -0.72,0 -1.296,-0.432 -0.528,-0.432 -0.528,-1.008 v -1.92 q -0.816,1.536 -2.64,2.64 -1.824,1.104 -3.984,1.104 -3.36,0 -5.904,-2.832 -2.544,-2.832 -2.544,-6.48 z m 3.984,0 q 0,2.208 1.632,3.984 1.632,1.728 3.792,1.728 2.112,0 3.792,-1.584 1.68,-1.632 1.68,-2.832 v -6.192 q 0,-2.496 -1.632,-4.032 -1.632,-1.584 -3.792,-1.584 -2.208,0 -3.84,1.728 -1.632,1.728 -1.632,3.888 z"
         style="font-style:normal;font-variant:normal;font-weight:500;font-stretch:normal;font-size:48px;line-height:0;font-family:Dosis;-inkscape-font-specification:'Dosis Medium';fill:#931111;fill-opacity:1"
         id="path1044" />
      <path
         d="m 169.85377,330.48242 q 0,-3.744 2.88,-5.184 2.88,-1.488 8.352,-1.488 h 2.304 v -1.008 q 0,-2.4 -1.344,-4.176 -1.296,-1.776 -3.936,-1.776 -2.016,0 -3.552,0.72 -1.536,0.672 -1.68,0.672 -0.672,0 -1.104,-0.624 -0.384,-0.672 -0.384,-1.392 0,-1.104 2.16,-1.92 2.208,-0.864 4.656,-0.864 4.704,0 6.912,2.688 2.256,2.64 2.256,6.624 v 12.288 q 0,0.624 -0.576,1.056 -0.528,0.384 -1.392,0.384 -0.768,0 -1.296,-0.384 -0.528,-0.432 -0.528,-1.056 v -1.92 q -3.264,3.744 -7.248,3.744 -2.88,0 -4.704,-1.632 -1.776,-1.632 -1.776,-4.752 z m 4.032,-0.432 q 0,1.776 1.008,2.688 1.008,0.912 2.688,0.912 2.016,0 3.888,-1.584 1.92,-1.632 1.92,-3.312 v -2.496 h -1.68 q -1.392,0 -2.4,0.096 -1.008,0.048 -2.112,0.288 -1.056,0.192 -1.776,0.624 -0.672,0.384 -1.104,1.104 -0.432,0.672 -0.432,1.68 z"
         style="font-style:normal;font-variant:normal;font-weight:500;font-stretch:normal;font-size:48px;line-height:0;font-family:Dosis;-inkscape-font-specification:'Dosis Medium';fill:#931111;fill-opacity:1"
         id="path1046" />
      <path
         d="m 188.63827,303.02642 q 0,-0.672 0.768,-1.152 0.816,-0.48 1.68,-0.48 1.2,0 1.488,0.912 l 8.112,28.512 4.56,-17.568 q 0.336,-1.248 2.112,-1.248 1.68,0 2.016,1.248 l 4.608,17.568 8.064,-28.512 q 0.288,-0.912 1.536,-0.912 0.864,0 1.632,0.48 0.768,0.48 0.768,1.152 0,0.288 -0.048,0.432 l -9.456,31.92 q -0.432,1.392 -2.496,1.392 -2.16,0 -2.496,-1.392 l -4.128,-15.84 -4.176,15.84 q -0.384,1.392 -2.448,1.392 -2.064,0 -2.496,-1.392 l -9.504,-31.92 q -0.096,-0.288 -0.096,-0.432 z"
         style="font-style:normal;font-variant:normal;font-weight:500;font-stretch:normal;font-size:48px;line-height:0;font-family:Dosis;-inkscape-font-specification:'Dosis Medium';fill:#931111;fill-opacity:1"
         id="path1048" />
      <path
         d="m 226.44652,327.55442 v -5.04 q 0,-3.696 2.784,-6.384 2.832,-2.688 6.768,-2.688 3.744,0 6.48,2.544 2.736,2.496 2.736,6.288 0,1.392 -0.336,2.256 -0.336,0.816 -1.056,1.2 -0.672,0.336 -1.296,0.432 -0.576,0.096 -1.584,0.096 h -10.512 v 1.44 q 0,2.64 1.872,4.224 1.92,1.584 4.944,1.584 1.584,0 2.736,-0.48 1.2,-0.48 1.92,-0.912 0.72,-0.48 1.152,-0.48 0.672,0 1.152,0.624 0.48,0.576 0.48,1.2 0,1.104 -2.208,2.256 -2.16,1.152 -5.376,1.152 -4.704,0 -7.68,-2.544 -2.976,-2.592 -2.976,-6.768 z m 3.984,-3.984 h 8.88 q 1.248,0 1.68,-0.288 0.432,-0.336 0.432,-1.248 0,-2.16 -1.584,-3.792 -1.584,-1.632 -3.888,-1.632 -2.256,0 -3.888,1.536 -1.632,1.488 -1.632,3.696 z"
         style="font-style:normal;font-variant:normal;font-weight:500;font-stretch:normal;font-size:48px;line-height:0;font-family:Dosis;-inkscape-font-specification:'Dosis Medium';fill:#931111;fill-opacity:1"
         id="path1050" />
      <path
         d="m 249.67102,335.04242 v -33.648 q 0,-0.624 0.528,-1.008 0.576,-0.384 1.44,-0.384 0.864,0 1.44,0.384 0.576,0.384 0.576,1.008 v 15.696 q 0.864,-1.536 2.496,-2.592 1.632,-1.056 3.792,-1.056 3.504,0 6.048,2.736 2.544,2.688 2.544,6.48 v 4.896 q 0,3.648 -2.544,6.48 -2.544,2.832 -5.904,2.832 -2.16,0 -3.984,-1.104 -1.824,-1.104 -2.64,-2.64 v 1.92 q 0,0.576 -0.576,1.008 -0.528,0.432 -1.248,0.432 -0.816,0 -1.392,-0.432 -0.576,-0.432 -0.576,-1.008 z m 3.984,-6.192 q 0,1.2 1.68,2.832 1.68,1.584 3.792,1.584 2.16,0 3.792,-1.728 1.632,-1.776 1.632,-3.984 v -4.896 q 0,-2.16 -1.632,-3.888 -1.632,-1.728 -3.84,-1.728 -2.16,0 -3.792,1.584 -1.632,1.536 -1.632,4.032 z"
         style="font-style:normal;font-variant:normal;font-weight:500;font-stretch:normal;font-size:48px;line-height:0;font-family:Dosis;-inkscape-font-specification:'Dosis Medium';fill:#931111;fill-opacity:1"
         id="path1052" />
      <path
         d="m 282.31227,335.36242 v -26.17066 q 0,-0.48534 0.41066,-0.784 0.448,-0.29867 1.12,-0.29867 0.672,0 1.12,0.29867 0.448,0.29866 0.448,0.784 v 12.208 q 0.672,-1.19467 1.94134,-2.016 1.26933,-0.82134 2.94933,-0.82134 2.72533,0 4.704,2.128 1.97867,2.09067 1.97867,5.04 v 3.808 q 0,2.83734 -1.97867,5.04 -1.97867,2.20267 -4.592,2.20267 -1.68,0 -3.09867,-0.85867 -1.41866,-0.85866 -2.05333,-2.05333 v 1.49333 q 0,0.448 -0.448,0.784 -0.41067,0.336 -0.97067,0.336 -0.63466,0 -1.08266,-0.336 -0.448,-0.336 -0.448,-0.784 z m 3.09866,-4.816 q 0,0.93334 1.30667,2.20267 1.30667,1.232 2.94933,1.232 1.68,0 2.94934,-1.344 1.26933,-1.38133 1.26933,-3.09867 v -3.808 q 0,-1.68 -1.26933,-3.024 -1.26934,-1.344 -2.98667,-1.344 -1.68,0 -2.94933,1.232 -1.26934,1.19467 -1.26934,3.136 z"
         style="font-size:37.33333206px;fill:#333333"
         id="path1054" />
      <path
         d="m 300.05085,329.53842 v -3.92 q 0,-2.87466 2.16534,-4.96533 2.20266,-2.09067 5.264,-2.09067 2.912,0 5.04,1.97867 2.128,1.94133 2.128,4.89067 0,1.08266 -0.26134,1.75466 -0.26133,0.63467 -0.82133,0.93334 -0.52267,0.26133 -1.008,0.336 -0.448,0.0747 -1.232,0.0747 h -8.176 v 1.12 q 0,2.05334 1.456,3.28534 1.49333,1.232 3.84533,1.232 1.232,0 2.128,-0.37334 0.93334,-0.37333 1.49334,-0.70933 0.56,-0.37333 0.896,-0.37333 0.52266,0 0.896,0.48533 0.37333,0.448 0.37333,0.93333 0,0.85867 -1.71733,1.75467 -1.68,0.896 -4.18134,0.896 -3.65866,0 -5.97333,-1.97867 -2.31467,-2.016 -2.31467,-5.264 z m 3.09867,-3.09866 h 6.90667 q 0.97066,0 1.30666,-0.224 0.336,-0.26134 0.336,-0.97067 0,-1.68 -1.232,-2.94933 -1.232,-1.26934 -3.024,-1.26934 -1.75466,0 -3.024,1.19467 -1.26933,1.15733 -1.26933,2.87467 z"
         style="font-size:37.33333206px;fill:#333333"
         id="path1056" />
      <path
         d="m 318.00234,330.84509 v -19.22667 q 0,-0.448 0.48534,-0.74666 0.48533,-0.336 1.04533,-0.336 0.59733,0 1.08267,0.336 0.48533,0.29866 0.48533,0.74666 v 7.168 h 4.704 q 0.41067,0 0.672,0.37334 0.26133,0.37333 0.26133,0.85866 0,0.48534 -0.26133,0.85867 -0.26133,0.336 -0.672,0.336 h -4.704 v 9.632 q 0,1.60533 0.672,2.27733 0.70933,0.63467 2.42667,0.63467 h 1.15733 q 0.63467,0 0.97067,0.41067 0.37333,0.37333 0.37333,0.93333 0,0.56 -0.37333,0.97067 -0.37334,0.41066 -0.97067,0.41066 h -1.15733 q -6.19734,0 -6.19734,-5.63733 z"
         style="font-size:37.33333206px;fill:#333333"
         id="path1058" />
      <path
         d="m 328.51343,331.81576 q 0,-2.912 2.24,-4.032 2.24,-1.15734 6.496,-1.15734 h 1.792 v -0.784 q 0,-1.86666 -1.04534,-3.248 -1.008,-1.38133 -3.06133,-1.38133 -1.568,0 -2.76267,0.56 -1.19466,0.52267 -1.30666,0.52267 -0.52267,0 -0.85867,-0.48534 -0.29867,-0.52266 -0.29867,-1.08266 0,-0.85867 1.68,-1.49334 1.71734,-0.672 3.62134,-0.672 3.65866,0 5.376,2.09067 1.75466,2.05333 1.75466,5.152 v 9.55733 q 0,0.48534 -0.448,0.82134 -0.41066,0.29866 -1.08266,0.29866 -0.59734,0 -1.008,-0.29866 -0.41067,-0.336 -0.41067,-0.82134 v -1.49333 q -2.53867,2.912 -5.63733,2.912 -2.24,0 -3.65867,-1.26933 -1.38133,-1.26934 -1.38133,-3.696 z m 3.136,-0.336 q 0,1.38133 0.784,2.09066 0.784,0.70934 2.09066,0.70934 1.568,0 3.024,-1.232 1.49334,-1.26934 1.49334,-2.576 v -1.94134 h -1.30667 q -1.08267,0 -1.86667,0.0747 -0.784,0.0373 -1.64266,0.224 -0.82134,0.14933 -1.38134,0.48533 -0.52266,0.29867 -0.85866,0.85867 -0.336,0.52267 -0.336,1.30667 z"
         style="font-size:37.33333206px;fill:#333333"
         id="path1060" />
      <path
         d="m 102.36427,385.42642 v -33.024 q 0,-0.432 0.288,-0.72 0.288,-0.288 0.768,-0.288 h 8.208 q 4.512,0 7.296,2.208 2.832,2.16 2.832,7.104 0,8.064 -7.824,9.168 l 7.68,14.88 q 0.144,0.288 0.144,0.576 0,0.48 -0.384,0.864 -0.336,0.336 -0.912,0.336 -0.576,0 -1.488,-1.68 l -7.536,-14.736 h -6.672 v 15.312 q 0,1.056 -1.2,1.056 -1.2,0 -1.2,-1.056 z m 2.4,-17.52 h 6.864 q 7.728,0 7.728,-7.152 0,-7.056 -7.728,-7.056 h -6.864 z"
         style="font-style:normal;font-variant:normal;font-weight:300;font-stretch:normal;font-size:48px;line-height:0;font-family:Dosis;-inkscape-font-specification:'Dosis Light';fill:#931111;fill-opacity:1"
         id="path1062" />
      <path
         d="m 125.81827,354.89842 q 0,-0.672 0.528,-1.152 0.528,-0.528 1.296,-0.528 0.72,0 1.248,0.528 0.528,0.48 0.528,1.152 0,0.72 -0.528,1.248 -0.528,0.528 -1.248,0.528 -0.768,0 -1.296,-0.528 -0.528,-0.528 -0.528,-1.248 z m 0.672,30.528 v -20.64 q 0,-0.96 1.152,-0.96 1.2,0 1.2,0.96 v 20.64 q 0,0.384 -0.384,0.72 -0.336,0.336 -0.816,0.336 -0.48,0 -0.816,-0.288 -0.336,-0.336 -0.336,-0.768 z"
         style="font-style:normal;font-variant:normal;font-weight:300;font-stretch:normal;font-size:48px;line-height:0;font-family:Dosis;-inkscape-font-specification:'Dosis Light';fill:#931111;fill-opacity:1"
         id="path1064" />
      <path
         d="m 133.38502,391.47442 q 0,-3.744 4.224,-5.28 -2.784,-0.912 -2.784,-3.36 0,-2.208 2.352,-3.408 -2.544,-2.256 -2.544,-6.048 v -1.968 q 0,-3.456 2.208,-5.664 2.208,-2.208 5.76,-2.208 3.504,0 5.664,2.16 0.672,-1.344 1.632,-2.16 1.008,-0.816 1.872,-0.816 0.624,0 0.912,0.336 0.336,0.336 0.336,0.768 0,0.864 -0.864,0.96 -1.68,0.096 -2.784,2.16 1.248,1.68 1.248,4.464 v 1.968 q 0,3.456 -2.256,5.712 -2.256,2.256 -5.808,2.256 -2.16,0 -3.792,-0.912 -1.728,0.864 -1.728,2.112 0,1.248 1.536,1.824 1.584,0.528 3.792,0.72 2.208,0.144 4.416,0.528 2.208,0.384 3.744,1.728 1.584,1.344 1.584,3.744 0,3.168 -2.496,4.896 -2.496,1.776 -6.72,1.776 -4.224,0 -6.864,-1.728 -2.64,-1.728 -2.64,-4.56 z m 2.304,-0.24 q 0,2.064 1.92,3.312 1.92,1.296 5.28,1.296 3.264,0 5.04,-1.248 1.824,-1.248 1.824,-3.408 0,-1.056 -0.528,-1.824 -0.48,-0.72 -1.2,-1.152 -0.72,-0.432 -1.872,-0.72 -1.104,-0.288 -1.968,-0.384 -0.816,-0.048 -2.064,-0.144 l -1.728,-0.192 q -4.704,1.392 -4.704,4.464 z m 1.248,-17.904 q 0,2.64 1.536,4.368 1.536,1.68 4.176,1.68 2.592,0 4.128,-1.68 1.536,-1.68 1.536,-4.32 v -1.968 q 0,-2.592 -1.536,-4.224 -1.536,-1.68 -4.176,-1.68 -2.64,0 -4.176,1.68 -1.488,1.632 -1.488,4.224 z"
         style="font-style:normal;font-variant:normal;font-weight:300;font-stretch:normal;font-size:48px;line-height:0;font-family:Dosis;-inkscape-font-specification:'Dosis Light';fill:#931111;fill-opacity:1"
         id="path1066" />
      <path
         d="m 154.37377,364.88242 q 0,-0.48 0.384,-0.768 0.432,-0.336 0.96,-0.336 0.768,0 0.96,0.576 l 6.576,18.144 6.576,-17.856 q 0.336,-0.864 0.96,-0.864 0.48,0 0.912,0.336 0.48,0.288 0.48,0.72 l -0.192,0.768 -7.584,20.544 q -0.336,0.672 -1.152,0.672 -0.816,0 -1.104,-0.672 l -7.584,-20.544 q -0.192,-0.576 -0.192,-0.72 z"
         style="font-style:normal;font-variant:normal;font-weight:300;font-stretch:normal;font-size:48px;line-height:0;font-family:Dosis;-inkscape-font-specification:'Dosis Light';fill:#931111;fill-opacity:1"
         id="path1068" />
      <path
         d="m 175.31377,377.89042 v -5.712 q 0,-3.552 2.592,-6.096 2.592,-2.544 6.24,-2.544 3.552,0 6.144,2.496 2.592,2.496 2.592,6.192 0,1.296 -0.336,2.112 -0.288,0.768 -0.96,1.104 -0.672,0.336 -1.248,0.432 -0.528,0.048 -1.536,0.048 h -11.136 v 2.016 q 0,3.024 2.16,4.848 2.16,1.824 5.568,1.824 1.728,0 2.928,-0.48 1.2,-0.48 1.824,-0.96 0.624,-0.48 0.96,-0.48 0.432,0 0.768,0.384 0.336,0.384 0.336,0.768 0,0.912 -2.016,1.92 -1.968,1.008 -4.896,1.008 -4.416,0 -7.2,-2.448 -2.784,-2.448 -2.784,-6.432 z m 2.352,-3.936 h 10.224 q 1.632,0 2.16,-0.336 0.528,-0.336 0.528,-1.392 0,-2.544 -1.824,-4.56 -1.824,-2.016 -4.608,-2.016 -2.688,0 -4.608,1.872 -1.872,1.872 -1.872,4.464 z"
         style="font-style:normal;font-variant:normal;font-weight:300;font-stretch:normal;font-size:48px;line-height:0;font-family:Dosis;-inkscape-font-specification:'Dosis Light';fill:#931111;fill-opacity:1"
         id="path1070" />
      <path
         d="m 196.97002,377.89042 v -5.568 q 0,-3.648 2.544,-6.192 2.544,-2.592 6.096,-2.592 2.208,0 3.84,1.056 1.68,1.008 2.544,2.592 v -16.464 q 0,-0.432 0.336,-0.72 0.336,-0.288 0.864,-0.288 0.48,0 0.816,0.288 0.336,0.288 0.336,0.72 v 34.704 q 0,0.432 -0.336,0.768 -0.336,0.288 -0.816,0.288 -0.48,0 -0.816,-0.336 -0.336,-0.336 -0.336,-0.72 v -2.304 q -0.816,1.536 -2.64,2.592 -1.776,1.056 -3.888,1.056 -3.408,0 -6,-2.688 -2.544,-2.688 -2.544,-6.192 z m 2.352,0 q 0,2.592 1.92,4.656 1.92,2.016 4.464,2.016 2.448,0 4.368,-1.824 1.92,-1.824 1.92,-3.216 v -7.2 q 0,-2.928 -1.92,-4.752 -1.872,-1.824 -4.32,-1.824 -2.592,0 -4.512,2.016 -1.92,2.016 -1.92,4.56 z"
         style="font-style:normal;font-variant:normal;font-weight:300;font-stretch:normal;font-size:48px;line-height:0;font-family:Dosis;-inkscape-font-specification:'Dosis Light';fill:#931111;fill-opacity:1"
         id="path1072" />
      <path
         d="m 219.12502,380.43442 q 0,-3.6 2.832,-4.992 2.88,-1.44 8.352,-1.44 h 2.592 v -1.248 q 0,-2.88 -1.536,-4.944 -1.488,-2.112 -4.512,-2.112 -1.824,0 -3.408,0.672 -1.584,0.672 -1.632,0.672 -0.48,0 -0.768,-0.432 -0.288,-0.432 -0.288,-0.864 0,-0.816 1.968,-1.488 2.016,-0.72 4.224,-0.72 4.272,0 6.288,2.64 2.016,2.592 2.016,6.576 v 12.672 q 0,0.432 -0.336,0.768 -0.336,0.288 -0.816,0.288 -0.48,0 -0.816,-0.288 -0.336,-0.336 -0.336,-0.768 v -2.304 q -3.168,3.648 -7.2,3.648 -2.928,0 -4.8,-1.584 -1.824,-1.632 -1.824,-4.752 z m 2.352,-0.096 q 0,2.16 1.248,3.264 1.296,1.056 3.36,1.056 2.448,0 4.608,-1.728 2.208,-1.776 2.208,-3.456 v -3.552 h -2.352 q -2.064,0 -3.456,0.144 -1.392,0.144 -2.784,0.576 -1.392,0.384 -2.112,1.344 -0.72,0.912 -0.72,2.352 z"
         style="font-style:normal;font-variant:normal;font-weight:300;font-stretch:normal;font-size:48px;line-height:0;font-family:Dosis;-inkscape-font-specification:'Dosis Light';fill:#931111;fill-opacity:1"
         id="path1074" />
      <path
         d="m 250.07827,377.89042 v -5.568 q 0,-3.552 2.592,-6.144 2.592,-2.64 6.192,-2.64 3.552,0 6.192,2.592 2.64,2.592 2.64,6.192 v 5.568 q 0,3.504 -2.688,6.192 -2.64,2.688 -6.144,2.688 -3.504,0 -6.144,-2.64 -2.64,-2.688 -2.64,-6.24 z m 2.352,0 q 0,2.592 1.872,4.656 1.92,2.016 4.56,2.016 2.64,0 4.56,-2.016 1.92,-2.064 1.92,-4.656 v -5.568 q 0,-2.544 -1.92,-4.56 -1.92,-2.016 -4.56,-2.016 -2.64,0 -4.56,2.016 -1.872,2.016 -1.872,4.56 z"
         style="font-style:normal;font-variant:normal;font-weight:300;font-stretch:normal;font-size:48px;line-height:0;font-family:Dosis;-inkscape-font-specification:'Dosis Light';fill:#931111;fill-opacity:1"
         id="path1076" />
      <path
         d="m 273.11527,385.42642 v -20.64 q 0,-0.96 1.152,-0.96 0.48,0 0.816,0.288 0.336,0.24 0.336,0.672 v 2.4 q 0.816,-1.536 2.496,-2.592 1.68,-1.056 3.936,-1.056 3.504,0 6.048,2.592 2.544,2.592 2.544,6.192 v 13.104 q 0,1.056 -1.2,1.056 -1.152,0 -1.152,-1.056 v -13.104 q 0,-2.544 -1.92,-4.56 -1.92,-2.016 -4.512,-2.016 -2.448,0 -4.32,1.824 -1.872,1.776 -1.872,4.752 v 13.104 q 0,0.384 -0.384,0.72 -0.336,0.336 -0.816,0.336 -0.48,0 -0.816,-0.288 -0.336,-0.336 -0.336,-0.768 z"
         style="font-style:normal;font-variant:normal;font-weight:300;font-stretch:normal;font-size:48px;line-height:0;font-family:Dosis;-inkscape-font-specification:'Dosis Light';fill:#931111;fill-opacity:1"
         id="path1078" />
      <path
         d="m 296.93677,385.42642 v -34.704 q 0,-0.432 0.336,-0.72 0.336,-0.288 0.816,-0.288 0.528,0 0.864,0.288 0.336,0.288 0.336,0.72 v 34.704 q 0,0.384 -0.384,0.72 -0.336,0.336 -0.816,0.336 -0.48,0 -0.816,-0.288 -0.336,-0.336 -0.336,-0.768 z"
         style="font-style:normal;font-variant:normal;font-weight:300;font-stretch:normal;font-size:48px;line-height:0;font-family:Dosis;-inkscape-font-specification:'Dosis Light';fill:#931111;fill-opacity:1"
         id="path1080" />
      <path
         d="m 305.34952,354.89842 q 0,-0.672 0.528,-1.152 0.528,-0.528 1.296,-0.528 0.72,0 1.248,0.528 0.528,0.48 0.528,1.152 0,0.72 -0.528,1.248 -0.528,0.528 -1.248,0.528 -0.768,0 -1.296,-0.528 -0.528,-0.528 -0.528,-1.248 z m 0.672,30.528 v -20.64 q 0,-0.96 1.152,-0.96 1.2,0 1.2,0.96 v 20.64 q 0,0.384 -0.384,0.72 -0.336,0.336 -0.816,0.336 -0.48,0 -0.816,-0.288 -0.336,-0.336 -0.336,-0.768 z"
         style="font-style:normal;font-variant:normal;font-weight:300;font-stretch:normal;font-size:48px;line-height:0;font-family:Dosis;-inkscape-font-specification:'Dosis Light';fill:#931111;fill-opacity:1"
         id="path1082" />
      <path
         d="m 314.74027,385.42642 v -20.64 q 0,-0.96 1.152,-0.96 0.48,0 0.816,0.288 0.336,0.24 0.336,0.672 v 2.4 q 0.816,-1.536 2.496,-2.592 1.68,-1.056 3.936,-1.056 3.504,0 6.048,2.592 2.544,2.592 2.544,6.192 v 13.104 q 0,1.056 -1.2,1.056 -1.152,0 -1.152,-1.056 v -13.104 q 0,-2.544 -1.92,-4.56 -1.92,-2.016 -4.512,-2.016 -2.448,0 -4.32,1.824 -1.872,1.776 -1.872,4.752 v 13.104 q 0,0.384 -0.384,0.72 -0.336,0.336 -0.816,0.336 -0.48,0 -0.816,-0.288 -0.336,-0.336 -0.336,-0.768 z"
         style="font-style:normal;font-variant:normal;font-weight:300;font-stretch:normal;font-size:48px;line-height:0;font-family:Dosis;-inkscape-font-specification:'Dosis Light';fill:#931111;fill-opacity:1"
         id="path1084" />
      <path
         d="m 337.31377,377.89042 v -5.712 q 0,-3.552 2.592,-6.096 2.592,-2.544 6.24,-2.544 3.552,0 6.144,2.496 2.592,2.496 2.592,6.192 0,1.296 -0.336,2.112 -0.288,0.768 -0.96,1.104 -0.672,0.336 -1.248,0.432 -0.528,0.048 -1.536,0.048 h -11.136 v 2.016 q 0,3.024 2.16,4.848 2.16,1.824 5.568,1.824 1.728,0 2.928,-0.48 1.2,-0.48 1.824,-0.96 0.624,-0.48 0.96,-0.48 0.432,0 0.768,0.384 0.336,0.384 0.336,0.768 0,0.912 -2.016,1.92 -1.968,1.008 -4.896,1.008 -4.416,0 -7.2,-2.448 -2.784,-2.448 -2.784,-6.432 z m 2.352,-3.936 h 10.224 q 1.632,0 2.16,-0.336 0.528,-0.336 0.528,-1.392 0,-2.544 -1.824,-4.56 -1.824,-2.016 -4.608,-2.016 -2.688,0 -4.608,1.872 -1.872,1.872 -1.872,4.464 z"
         style="font-style:normal;font-variant:normal;font-weight:300;font-stretch:normal;font-size:48px;line-height:0;font-family:Dosis;-inkscape-font-specification:'Dosis Light';fill:#931111;fill-opacity:1"
         id="path1086" />
    </g>
    <g
       id="g969"
       transform="matrix(0.23873446,0,0,0.23873446,56.216115,84.342785)">
      <path
         style="fill:#931111;fill-opacity:1;stroke:none;stroke-width:0.35277778"
         d="m 37.24607,262.39695 c -4.27379,-6.56703 -4.684233,-7.44066 -4.684233,-9.97056 0,-4.6205 3.175794,-7.64908 8.000521,-7.62965 2.561445,0.0103 5.104786,1.3055 6.490691,3.30536 0.741987,1.07069 1.003738,1.92318 1.111857,3.62118 0.221696,3.48163 -0.239818,4.49304 -5.248942,11.50301 -1.055638,1.4773 -2.078091,2.9478 -2.272118,3.26777 -0.288657,0.47603 -0.906226,-0.26865 -3.397776,-4.09711 z m -23.378274,-1.2587 c -0.642962,-2.17758 -2.050471,-10.51968 -2.096325,-12.42463 -0.110893,-4.60688 2.749095,-7.75339 7.302066,-8.03362 1.857484,-0.11432 2.44421,0.012 4.101783,0.88291 2.859359,1.50238 4.019042,3.32833 4.169008,6.56419 0.108913,2.35005 0.03178,2.67725 -1.054774,4.47568 -1.207633,1.9988 -1.83007,2.48546 -9.176008,7.17437 -2.567672,1.63895 -3.098042,1.86136 -3.24575,1.3611 z m 47.942717,-2.77537 c -2.716389,-1.8345 -5.389989,-3.76194 -5.941335,-4.2832 -3.393571,-3.20835 -3.281176,-8.51855 0.245851,-11.61531 1.653198,-1.45153 3.384825,-1.96181 6.075899,-1.79045 2.807003,0.17873 4.829771,1.465 6.058433,3.85252 1.350144,2.62358 1.374129,4.75215 0.114857,10.19301 -0.606249,2.61937 -1.217591,5.26119 -1.35854,5.87069 l -0.256276,1.1082 z M -8.2158782,247.05452 c 0,-0.81705 2.170569,-11.00394 2.642911,-12.40369 1.451738,-4.30209 5.329362,-6.39072 9.57382,-5.15683 5.837632,1.69705 7.7818532,9.23356 3.425993,13.28039 -1.754529,1.63005 -3.814991,2.3833 -9.000466,3.29032 -2.780117,0.48629 -5.411946,0.98418 -5.848508,1.10643 -0.436563,0.12225 -0.79375,0.0698 -0.79375,-0.11662 z m 91.1039832,-1.67379 c -7.117427,-1.43684 -9.332081,-2.43553 -10.821611,-4.87999 -0.842998,-1.38344 -1.034881,-2.09692 -1.043633,-3.88056 -0.03598,-7.33148 8.64217,-10.98787 13.519754,-5.69631 1.96157,2.12805 2.26905,2.95531 3.3397,8.98526 0.49892,2.80991 1.00695,5.46612 1.12895,5.90268 0.122,0.43656 0.0842,0.77859 -0.0839,0.76006 -0.16815,-0.0185 -2.88582,-0.55454 -6.03925,-1.19114 z m -96.748428,-18.34846 c -1.067153,-0.27719 -3.627713,-0.84693 -5.690134,-1.26607 l -3.749855,-0.76209 3.169796,-4.8845 c 4.675804,-7.20519 7.249002,-9.23319 10.9620505,-8.63945 5.7133583,0.9136 8.6435763,6.75537 5.9626363,11.88727 -0.813844,1.55788 -1.327287,2.06361 -2.924244,2.88033 -2.3538789,1.20381 -5.0590808,1.47835 -7.7302498,0.78451 z m 70.824357,-0.847 c -7.167273,-2.36312 -11.045412,-8.81672 -8.091763,-13.46551 1.34432,-2.11584 2.956832,-3.46592 6.938384,-5.80919 1.844714,-1.08567 3.354025,-2.1274 3.354025,-2.31495 0,-0.18755 -0.544837,-1.42291 -1.210748,-2.74524 l -1.210751,-2.40422 -2.468689,0.62693 c -2.939394,0.74647 -7.253821,1.37691 -9.42284,1.37691 h -1.561973 v 11.80019 11.80019 l -2.469444,-1.42374 -2.469445,-1.42374 v -8.08339 c 0,-5.18978 -0.127134,-8.0834 -0.355152,-8.0834 -0.195333,0 -4.4713,2.69875 -9.502147,5.99723 -5.030848,3.29847 -9.276342,5.99693 -9.434432,5.99658 -0.15809,-3.5e-4 -1.228263,-0.84262 -2.378167,-1.87171 l -2.090727,-1.87107 1.914338,-1.18067 c 1.05289,-0.64937 6.200592,-3.79489 11.439342,-6.99005 5.23875,-3.19515 9.604376,-5.89143 9.701389,-5.99174 0.09701,-0.10031 -0.02515,-0.25429 -0.271518,-0.34218 -0.246349,-0.0879 -2.151349,-1.19981 -4.233334,-2.47092 -2.081985,-1.27112 -4.976051,-2.87644 -6.431259,-3.56739 -2.371909,-1.12622 -2.956282,-1.25797 -5.644445,-1.27263 -3.245901,-0.0177 -4.267514,0.33967 -6.450725,2.25655 l -1.168584,1.02603 -1.482012,-2.46351 c -0.815107,-1.35493 -1.481706,-2.57367 -1.481332,-2.70832 0.0014,-0.52945 3.443253,-2.52484 5.028008,-2.91502 4.295073,-1.05748 7.313987,0.0616 16.667146,6.17831 2.910416,1.90333 5.490104,3.53682 5.732639,3.62997 0.345708,0.13277 0.440972,-1.78221 0.440972,-8.86421 v -9.03358 l -16.139584,-0.002 -16.1395842,-0.002 -1.343593,-2.46708 -1.343594,-2.46687 H 38.464794 73.545155 l 1.419197,2.38125 1.419197,2.38125 -16.546933,0.0917 -16.546937,0.0916 v 9.89594 9.89594 l 1.675695,-0.22187 c 3.652453,-0.48358 9.613653,-2.73374 9.613018,-3.62859 -9.9e-5,-0.13735 -0.317599,-1.08486 -0.705556,-2.10559 -0.945479,-2.48758 -0.904469,-3.46547 0.17501,-4.17277 2.333495,-1.52897 9.702945,2.36906 9.702945,5.13232 0,1.02811 -1.381569,2.51679 -3.034725,3.27002 -0.742255,0.3382 -0.700264,0.46459 1.723835,5.18861 1.366544,2.66307 2.373675,5.02148 2.238071,5.24089 -0.135604,0.21941 -2.174822,1.47657 -4.5316,2.7937 -4.712864,2.63386 -7.803325,5.28913 -8.186494,7.0337 -0.311376,1.41767 0.621358,3.74498 1.948437,4.86164 1.197416,1.00756 4.440616,1.76762 6.057181,1.41953 1.638907,-0.3529 3.089018,-1.13911 4.405588,-2.38859 l 1.149459,-1.09088 1.760958,1.73448 c 0.968526,0.95396 1.760957,1.86829 1.760957,2.03184 0,0.16355 -0.912813,0.71667 -2.028472,1.22915 -2.718376,1.24871 -7.087472,1.45787 -10.049952,0.48111 z m 30.221521,-0.003 c -3.69651,-1.67875 -5.38715,-6.4355 -3.64956,-10.2682 1.44027,-3.17691 3.80577,-4.73062 7.2023,-4.73062 3.58559,0 6.16633,1.93223 8.9744,6.71923 0.667305,1.13759 1.905375,3.07923 2.751255,4.31476 0.84589,1.23553 1.49053,2.2936 1.43255,2.35128 -0.058,0.0577 -2.60149,0.59459 -5.652225,1.19316 -6.38689,1.25314 -9.00629,1.35275 -11.05872,0.42056 z M -17.211712,205.68372 c -1.357874,-0.42424 -9.762922,-5.81339 -11.598682,-7.43684 -0.386522,-0.34182 9.82118,-7.14636 11.602278,-7.73417 2.135032,-0.70463 5.218895,-0.30265 6.965593,0.90795 1.8342158,1.27126 3.4377558,4.21109 3.4377558,6.30257 0,3.10256 -1.49825,5.87323 -3.9084888,7.22786 -1.59828,0.89828 -4.809497,1.26031 -6.498456,0.73263 z M 92.057285,205.5652 c -3.11532,-1.12983 -5.02838,-3.9867 -5.01541,-7.48977 0.0171,-4.61702 3.18881,-7.91432 7.61291,-7.91432 2.41695,0 3.98151,0.58294 6.703465,2.49767 1.33805,0.94123 3.664,2.54889 5.16879,3.5726 3.20608,2.18108 3.59376,1.49154 -3.30852,5.88466 -6.161475,3.92162 -8.157625,4.53848 -11.161235,3.44916 z M -13.691763,184.20937 c -1.987614,-0.90291 -3.361824,-2.39281 -5.668802,-6.14603 -1.098061,-1.78643 -2.530148,-3.99962 -3.182417,-4.91818 -1.171227,-1.64941 -1.17615,-1.67229 -0.396782,-1.84409 10.925468,-2.40845 13.9904695,-2.64072 16.4721088,-1.24829 2.430923,1.36397 3.669466,3.39737 3.833086,6.29303 0.212004,3.75196 -1.530286,6.68771 -4.776229,8.04793 -1.5941566,0.66803 -4.5986758,0.57984 -6.2809648,-0.18437 z m 101.787848,0.196 c -1.97245,-0.62814 -4.10472,-3.0294 -4.79328,-5.39795 -0.49487,-1.70228 -0.52439,-2.32713 -0.18035,-3.81756 0.48827,-2.11532 1.49013,-3.67981 3.03378,-4.73754 2.603,-1.7836 5.57814,-1.88422 11.814,-0.39954 2.425345,0.57744 4.840625,1.0518 5.367295,1.05412 0.94158,0.004 0.91066,0.0764 -1.85093,4.32574 -3.489325,5.36916 -5.688555,7.92439 -7.546695,8.76832 -1.59049,0.72237 -3.95736,0.80516 -5.84382,0.20441 z M -1.8175212,167.10033 c -1.74803,-0.63258 -3.755024,-2.46241 -4.585091,-4.18035 -0.401347,-0.83064 -1.119165,-3.73276 -1.595151,-6.44915 -0.4759865,-2.71638 -0.9751188,-5.37545 -1.1091832,-5.90902 -0.14651,-0.58311 -0.1003405,-0.97014 0.1157295,-0.97014 0.1977154,0 2.8140997,0.45988 5.8141867,1.02197 5.594642,1.04818 8.247559,1.95235 9.731767,3.31679 2.084324,1.91612 2.78372,6.07798 1.497334,8.91009 -1.645405,3.62254 -6.199284,5.58804 -9.869592,4.25981 z M 74.68662,165.73125 c -4.303599,-2.58423 -5.201581,-8.47612 -1.833086,-12.02734 1.674908,-1.76576 3.982219,-2.65271 9.323261,-3.58393 2.76854,-0.4827 5.4143,-0.98242 5.87945,-1.11049 0.75452,-0.20774 0.82367,-0.14134 0.64114,0.61563 -0.11253,0.46667 -0.54379,2.73497 -0.95835,5.04067 -1.74108,9.6834 -3.58775,12.18454 -9.010795,12.20424 -1.786773,0.006 -2.441649,-0.17803 -4.04162,-1.13878 z M 15.422752,154.69254 c -2.738691,-1.22854 -4.258246,-3.66913 -4.493768,-7.21754 -0.115732,-1.74362 0.108254,-3.37618 0.934801,-6.81345 0.597853,-2.48621 1.087004,-4.88069 1.087004,-5.32106 0,-0.44037 0.09892,-0.89959 0.219809,-1.02048 0.329187,-0.32919 10.522486,6.64956 11.628776,7.96154 1.510281,1.79107 1.999086,3.31736 1.843741,5.75701 -0.166529,2.61531 -1.312535,4.58241 -3.521157,6.044 -1.193309,0.7897 -1.927606,0.98707 -3.965737,1.06594 -1.69405,0.0656 -2.898927,-0.0816 -3.733469,-0.45596 z m 43.212761,0.0536 c -3.5693,-1.55927 -5.631431,-5.42847 -4.776618,-8.96243 0.569454,-2.35424 2.425224,-4.70939 4.962045,-6.29734 1.194975,-0.748 3.568161,-2.25766 5.273753,-3.35479 l 3.101072,-1.99479 1.141381,5.75469 c 1.856645,9.36098 1.259656,12.36239 -2.868045,14.41931 -2.091859,1.04242 -5.017326,1.22879 -6.833588,0.43535 z m -20.722492,-4.2243 c -2.850025,-1.06266 -4.532006,-2.85918 -5.212782,-5.56778 -0.656855,-2.61341 0.03263,-5.10108 2.316684,-8.35883 1.042011,-1.48621 2.654967,-3.84788 3.584353,-5.24815 0.929386,-1.40028 1.769167,-2.54947 1.866181,-2.55375 0.256861,-0.0113 6.12425,9.05212 7.06961,10.92054 1.442639,2.85124 0.957542,6.38925 -1.201847,8.76558 -1.844795,2.03013 -5.8501,3.00142 -8.422199,2.04239 z"
         id="path971"
         inkscape:connector-curvature="0" />
    </g>
  </g>
</svg>
